<svg width="177" height="36" viewBox="0 0 177 36" fill="none" xmlns="http://www.w3.org/2000/svg">
<circle cx="12.0143" cy="15.5143" r="12.0143" fill="#5DBA66" fill-opacity="0.4"/>
<circle cx="16.9857" cy="20.4857" r="12.0143" fill="#5DBA66"/>
<path d="M46.976 26V20.024L41.336 9.2H44.816L48.536 16.952L52.232 9.2H55.664L50.048 20.024V26H46.976ZM61.2112 26.288C60.0112 26.288 58.9472 26.032 58.0192 25.52C57.0912 25.008 56.3632 24.288 55.8352 23.36C55.3072 22.432 55.0432 21.36 55.0432 20.144C55.0432 18.912 55.2992 17.816 55.8112 16.856C56.3392 15.896 57.0592 15.152 57.9712 14.624C58.8992 14.08 59.9872 13.808 61.2352 13.808C62.4032 13.808 63.4352 14.064 64.3312 14.576C65.2272 15.088 65.9232 15.792 66.4192 16.688C66.9312 17.568 67.1872 18.552 67.1872 19.64C67.1872 19.816 67.1792 20 67.1632 20.192C67.1632 20.384 67.1552 20.584 67.1392 20.792H58.0912C58.1552 21.72 58.4752 22.448 59.0512 22.976C59.6432 23.504 60.3552 23.768 61.1872 23.768C61.8112 23.768 62.3312 23.632 62.7472 23.36C63.1792 23.072 63.4992 22.704 63.7072 22.256H66.8272C66.6032 23.008 66.2272 23.696 65.6992 24.32C65.1872 24.928 64.5472 25.408 63.7792 25.76C63.0272 26.112 62.1712 26.288 61.2112 26.288ZM61.2352 16.304C60.4832 16.304 59.8192 16.52 59.2432 16.952C58.6672 17.368 58.2992 18.008 58.1392 18.872H64.0672C64.0192 18.088 63.7312 17.464 63.2032 17C62.6752 16.536 62.0192 16.304 61.2352 16.304ZM74.6909 26.288C73.6349 26.288 72.7069 26.12 71.9069 25.784C71.1069 25.432 70.4669 24.952 69.9869 24.344C69.5069 23.736 69.2189 23.032 69.1229 22.232H72.2189C72.3149 22.696 72.5709 23.096 72.9869 23.432C73.4189 23.752 73.9709 23.912 74.6429 23.912C75.3149 23.912 75.8029 23.776 76.1069 23.504C76.4269 23.232 76.5869 22.92 76.5869 22.568C76.5869 22.056 76.3629 21.712 75.9149 21.536C75.4669 21.344 74.8429 21.16 74.0429 20.984C73.5309 20.872 73.0109 20.736 72.4829 20.576C71.9549 20.416 71.4669 20.216 71.0189 19.976C70.5869 19.72 70.2349 19.4 69.9629 19.016C69.6909 18.616 69.5549 18.128 69.5549 17.552C69.5549 16.496 69.9709 15.608 70.8029 14.888C71.6509 14.168 72.8349 13.808 74.3549 13.808C75.7629 13.808 76.8829 14.136 77.7149 14.792C78.5629 15.448 79.0669 16.352 79.2269 17.504H76.3229C76.1469 16.624 75.4829 16.184 74.3309 16.184C73.7549 16.184 73.3069 16.296 72.9869 16.52C72.6829 16.744 72.5309 17.024 72.5309 17.36C72.5309 17.712 72.7629 17.992 73.2269 18.2C73.6909 18.408 74.3069 18.6 75.0749 18.776C75.9069 18.968 76.6669 19.184 77.3549 19.424C78.0589 19.648 78.6189 19.992 79.0349 20.456C79.4509 20.904 79.6589 21.552 79.6589 22.4C79.6749 23.136 79.4829 23.8 79.0829 24.392C78.6829 24.984 78.1069 25.448 77.3549 25.784C76.6029 26.12 75.7149 26.288 74.6909 26.288ZM87.3003 26.288C86.2443 26.288 85.3163 26.12 84.5163 25.784C83.7163 25.432 83.0763 24.952 82.5963 24.344C82.1163 23.736 81.8283 23.032 81.7323 22.232H84.8283C84.9243 22.696 85.1803 23.096 85.5963 23.432C86.0283 23.752 86.5803 23.912 87.2523 23.912C87.9243 23.912 88.4123 23.776 88.7163 23.504C89.0363 23.232 89.1963 22.92 89.1963 22.568C89.1963 22.056 88.9723 21.712 88.5243 21.536C88.0763 21.344 87.4523 21.16 86.6523 20.984C86.1403 20.872 85.6203 20.736 85.0923 20.576C84.5643 20.416 84.0763 20.216 83.6283 19.976C83.1963 19.72 82.8443 19.4 82.5723 19.016C82.3003 18.616 82.1643 18.128 82.1643 17.552C82.1643 16.496 82.5803 15.608 83.4123 14.888C84.2603 14.168 85.4443 13.808 86.9643 13.808C88.3723 13.808 89.4923 14.136 90.3243 14.792C91.1723 15.448 91.6763 16.352 91.8363 17.504H88.9323C88.7563 16.624 88.0923 16.184 86.9403 16.184C86.3643 16.184 85.9163 16.296 85.5963 16.52C85.2923 16.744 85.1403 17.024 85.1403 17.36C85.1403 17.712 85.3723 17.992 85.8363 18.2C86.3003 18.408 86.9163 18.6 87.6843 18.776C88.5163 18.968 89.2763 19.184 89.9643 19.424C90.6683 19.648 91.2283 19.992 91.6443 20.456C92.0603 20.904 92.2683 21.552 92.2683 22.4C92.2843 23.136 92.0923 23.8 91.6923 24.392C91.2923 24.984 90.7163 25.448 89.9643 25.784C89.2123 26.12 88.3243 26.288 87.3003 26.288ZM98.4697 26L94.0297 9.2H97.3177L100.342 22.568L103.894 9.2H107.278L110.734 22.568L113.758 9.2H117.07L112.51 26H108.862L105.526 13.544L102.094 26H98.4697ZM123.742 26.288C122.542 26.288 121.478 26.032 120.55 25.52C119.622 25.008 118.894 24.288 118.366 23.36C117.838 22.432 117.574 21.36 117.574 20.144C117.574 18.912 117.83 17.816 118.342 16.856C118.87 15.896 119.59 15.152 120.502 14.624C121.43 14.08 122.518 13.808 123.766 13.808C124.934 13.808 125.966 14.064 126.862 14.576C127.758 15.088 128.454 15.792 128.95 16.688C129.462 17.568 129.718 18.552 129.718 19.64C129.718 19.816 129.71 20 129.694 20.192C129.694 20.384 129.686 20.584 129.67 20.792H120.622C120.686 21.72 121.006 22.448 121.582 22.976C122.174 23.504 122.886 23.768 123.718 23.768C124.342 23.768 124.862 23.632 125.278 23.36C125.71 23.072 126.03 22.704 126.238 22.256H129.358C129.134 23.008 128.758 23.696 128.23 24.32C127.718 24.928 127.078 25.408 126.31 25.76C125.558 26.112 124.702 26.288 123.742 26.288ZM123.766 16.304C123.014 16.304 122.35 16.52 121.774 16.952C121.198 17.368 120.83 18.008 120.67 18.872H126.598C126.55 18.088 126.262 17.464 125.734 17C125.206 16.536 124.55 16.304 123.766 16.304ZM139.982 26.288C138.286 26.288 136.83 25.928 135.614 25.208C134.398 24.472 133.462 23.456 132.806 22.16C132.15 20.848 131.822 19.336 131.822 17.624C131.822 15.912 132.15 14.4 132.806 13.088C133.462 11.776 134.398 10.752 135.614 10.016C136.83 9.28 138.286 8.912 139.982 8.912C141.998 8.912 143.646 9.416 144.926 10.424C146.222 11.416 147.03 12.816 147.35 14.624H143.966C143.758 13.712 143.31 13 142.622 12.488C141.95 11.96 141.054 11.696 139.934 11.696C138.382 11.696 137.166 12.224 136.286 13.28C135.406 14.336 134.966 15.784 134.966 17.624C134.966 19.464 135.406 20.912 136.286 21.968C137.166 23.008 138.382 23.528 139.934 23.528C141.054 23.528 141.95 23.288 142.622 22.808C143.31 22.312 143.758 21.632 143.966 20.768H147.35C147.03 22.496 146.222 23.848 144.926 24.824C143.646 25.8 141.998 26.288 139.982 26.288ZM154.102 26.288C153.078 26.288 152.238 26.128 151.582 25.808C150.926 25.472 150.438 25.032 150.118 24.488C149.798 23.944 149.638 23.344 149.638 22.688C149.638 21.584 150.07 20.688 150.934 20C151.798 19.312 153.094 18.968 154.822 18.968H157.846V18.68C157.846 17.864 157.614 17.264 157.15 16.88C156.686 16.496 156.11 16.304 155.422 16.304C154.798 16.304 154.254 16.456 153.79 16.76C153.326 17.048 153.038 17.48 152.926 18.056H149.926C150.006 17.192 150.294 16.44 150.79 15.8C151.302 15.16 151.958 14.672 152.758 14.336C153.558 13.984 154.454 13.808 155.446 13.808C157.142 13.808 158.478 14.232 159.454 15.08C160.43 15.928 160.918 17.128 160.918 18.68V26H158.302L158.014 24.08C157.662 24.72 157.166 25.248 156.526 25.664C155.902 26.08 155.094 26.288 154.102 26.288ZM154.798 23.888C155.678 23.888 156.358 23.6 156.838 23.024C157.334 22.448 157.646 21.736 157.774 20.888H155.158C154.342 20.888 153.758 21.04 153.406 21.344C153.054 21.632 152.878 21.992 152.878 22.424C152.878 22.888 153.054 23.248 153.406 23.504C153.758 23.76 154.222 23.888 154.798 23.888ZM163.849 26V14.096H166.561L166.801 16.112C167.169 15.408 167.697 14.848 168.385 14.432C169.089 14.016 169.913 13.808 170.857 13.808C172.329 13.808 173.473 14.272 174.289 15.2C175.105 16.128 175.513 17.488 175.513 19.28V26H172.441V19.568C172.441 18.544 172.233 17.76 171.817 17.216C171.401 16.672 170.753 16.4 169.873 16.4C169.009 16.4 168.297 16.704 167.737 17.312C167.193 17.92 166.921 18.768 166.921 19.856V26H163.849Z" fill="#5DBA66"/>
</svg>
